<svg height="512pt" viewBox="0 0 512 512" width="512pt" xmlns="http://www.w3.org/2000/svg"><path d="m440.757812 242.652344-128.554687-42.851563-42.855469-128.558593c-2.039062-6.125-7.769531-10.253907-14.226562-10.253907-6.453125 0-12.183594 4.128907-14.226563 10.253907l-42.851562 128.558593-128.558594 42.851563c-6.125 2.039062-10.253906 7.773437-10.253906 14.226562s4.128906 12.183594 10.253906 14.226563l128.558594 42.851562 42.851562 128.558594c2.042969 6.125 7.773438 10.253906 14.226563 10.253906s12.1875-4.128906 14.226562-10.253906l42.851563-128.558594 128.558593-42.851562c6.125-2.042969 10.253907-7.773438 10.253907-14.226563s-4.128907-12.1875-10.253907-14.226562zm-145.15625 45.222656c-4.476562 1.492188-7.992187 5.007812-9.484374 9.484375l-30.996094 92.992187-30.996094-92.992187c-1.492188-4.476563-5.003906-7.992187-9.484375-9.484375l-92.988281-30.996094 92.988281-30.996094c4.480469-1.492187 7.992187-5.003906 9.484375-9.484374l30.996094-92.988282 30.996094 92.988282c1.492187 4.480468 5.007812 7.992187 9.484374 9.484374l92.988282 30.996094zm0 0"/><path d="m503.710938 61.570312-35.519532-17.757812-17.761718-35.523438c-2.542969-5.078124-7.734376-8.289062-13.414063-8.289062s-10.875 3.210938-13.414063 8.289062l-17.761718 35.523438-35.519532 17.757812c-5.078124 2.542969-8.289062 7.734376-8.289062 13.414063 0 5.683594 3.210938 10.875 8.289062 13.414063l35.519532 17.761718 17.761718 35.519532c2.539063 5.082031 7.734376 8.292968 13.414063 8.292968s10.871094-3.210937 13.414063-8.292968l17.761718-35.519532 35.519532-17.761718c5.078124-2.539063 8.289062-7.730469 8.289062-13.414063 0-5.679687-3.210938-10.871094-8.289062-13.414063zm-53.40625 19.996094c-2.902344 1.453125-5.253907 3.804688-6.707032 6.707032l-6.582031 13.164062-6.582031-13.164062c-1.453125-2.902344-3.804688-5.253907-6.707032-6.707032l-13.164062-6.582031 13.164062-6.582031c2.902344-1.453125 5.253907-3.804688 6.707032-6.707032l6.582031-13.164062 6.582031 13.164062c1.453125 2.902344 3.804688 5.253907 6.707032 6.707032l13.164062 6.582031zm0 0"/><path d="m141.679688 423.496094-35.523438-17.761719-17.757812-35.519531c-2.542969-5.082032-7.734376-8.289063-13.414063-8.289063-5.683594 0-10.875 3.207031-13.414063 8.289063l-17.761718 35.519531-35.519532 17.761719c-5.078124 2.539062-8.289062 7.734375-8.289062 13.414062 0 5.679688 3.210938 10.871094 8.289062 13.414063l35.523438 17.761719 17.757812 35.519531c2.542969 5.082031 7.734376 8.289062 13.414063 8.289062 5.683594 0 10.875-3.207031 13.414063-8.289062l17.761718-35.519531 35.519532-17.761719c5.082031-2.539063 8.292968-7.734375 8.292968-13.414063 0-5.679687-3.214844-10.875-8.292968-13.414062zm-53.40625 19.996094c-2.902344 1.453124-5.253907 3.804687-6.707032 6.707031l-6.582031 13.164062-6.582031-13.164062c-1.453125-2.902344-3.804688-5.253907-6.707032-6.707031l-13.164062-6.582032 13.164062-6.582031c2.902344-1.453125 5.253907-3.804687 6.707032-6.707031l6.582031-13.167969 6.582031 13.167969c1.453125 2.902344 3.804688 5.253906 6.707032 6.707031l13.164062 6.582031zm0 0"/><path d="m435.910156 361.855469h-14.996094v-14.996094c0-8.28125-6.714843-14.996094-15-14.996094-8.28125 0-14.996093 6.714844-14.996093 14.996094v14.996094h-14.996094c-8.28125 0-14.996094 6.714843-14.996094 15 0 8.28125 6.714844 14.996093 14.996094 14.996093h14.996094v14.996094c0 8.28125 6.714843 14.996094 14.996093 14.996094 8.285157 0 15-6.714844 15-14.996094v-14.996094h14.996094c8.28125 0 14.996094-6.714843 14.996094-14.996093 0-8.285157-6.714844-15-14.996094-15zm0 0"/><path d="m75.984375 121.90625h14.996094v14.996094c0 8.285156 6.714843 15 14.996093 15 8.285157 0 15-6.714844 15-15v-14.996094h14.996094c8.28125 0 14.996094-6.714844 14.996094-14.996094s-6.714844-14.996094-14.996094-14.996094h-14.996094v-14.996093c0-8.285157-6.714843-15-15-15-8.28125 0-14.996093 6.714843-14.996093 15v14.996093h-14.996094c-8.28125 0-14.996094 6.714844-14.996094 14.996094s6.714844 14.996094 14.996094 14.996094zm0 0"/></svg>